<svg width="26" height="24" viewBox="0 0 26 24" fill="none" xmlns="http://www.w3.org/2000/svg">
<path d="M8.35722 4.6152C8.35722 3.39118 8.84637 2.21728 9.71707 1.35176C10.5878 0.486243 11.7687 0 13.0001 0C14.2314 0 15.4123 0.486243 16.283 1.35176C17.1537 2.21728 17.6429 3.39118 17.6429 4.6152C17.6429 5.83923 17.1537 7.01313 16.283 7.87864C15.4123 8.74416 14.2314 9.23041 13.0001 9.23041C11.7687 9.23041 10.5878 8.74416 9.71707 7.87864C8.84637 7.01313 8.35722 5.83923 8.35722 4.6152ZM10.2144 11.0765C9.47554 11.0765 8.76698 11.3682 8.24456 11.8875C7.72214 12.4069 7.42865 13.1112 7.42865 13.8456V18.4608C7.42865 19.9296 8.01564 21.3383 9.06048 22.3769C10.1053 23.4156 11.5224 23.9991 13.0001 23.9991C14.4777 23.9991 15.8948 23.4156 16.9396 22.3769C17.9845 21.3383 18.5715 19.9296 18.5715 18.4608V13.8456C18.5715 13.1112 18.278 12.4069 17.7555 11.8875C17.2331 11.3682 16.5246 11.0765 15.7858 11.0765H10.2144ZM5.67551 12.8672C5.60588 13.1887 5.57101 13.5167 5.57151 13.8456V18.4608C5.57133 19.4488 5.77061 20.4269 6.15756 21.3369C6.54451 22.247 7.11125 23.0707 7.82422 23.7591L7.63851 23.8108C6.21162 24.1903 4.69154 23.991 3.41242 23.2567C2.1333 22.5225 1.19984 21.3134 0.81725 19.8952L0.0948239 17.2184C0.000185281 16.8671 -0.0239192 16.5007 0.0238869 16.1402C0.0716929 15.7797 0.190473 15.432 0.373445 15.1171C0.556417 14.8022 0.799998 14.5262 1.09028 14.3049C1.38056 14.0835 1.71185 13.9212 2.06524 13.8271L5.67551 12.8672ZM18.174 23.7591C18.8873 23.0708 19.4544 22.2472 19.8417 21.3372C20.229 20.4271 20.4285 19.449 20.4286 18.4608V13.8456C20.4274 13.5084 20.3927 13.1823 20.3246 12.8672L23.933 13.8271C24.2866 13.9212 24.6181 14.0836 24.9085 14.305C25.1989 14.5265 25.4426 14.8027 25.6256 15.1178C25.8086 15.4329 25.9273 15.7808 25.975 16.1415C26.0227 16.5023 25.9983 16.8688 25.9034 17.2202L25.1829 19.8952C24.9893 20.6131 24.6524 21.285 24.1922 21.8708C23.7319 22.4565 23.1578 22.9442 22.504 23.3047C21.8501 23.6653 21.13 23.8913 20.3864 23.9694C19.6428 24.0474 18.8892 23.9759 18.174 23.7591ZM0.00011003 7.38433C0.00011003 6.4051 0.391434 5.46599 1.08799 4.77357C1.78456 4.08116 2.72929 3.69216 3.71438 3.69216C4.69947 3.69216 5.6442 4.08116 6.34076 4.77357C7.03733 5.46599 7.42865 6.4051 7.42865 7.38433C7.42865 8.36355 7.03733 9.30266 6.34076 9.99508C5.6442 10.6875 4.69947 11.0765 3.71438 11.0765C2.72929 11.0765 1.78456 10.6875 1.08799 9.99508C0.391434 9.30266 0.00011003 8.36355 0.00011003 7.38433ZM18.5715 7.38433C18.5715 6.4051 18.9628 5.46599 19.6593 4.77357C20.3559 4.08116 21.3006 3.69216 22.2857 3.69216C23.2708 3.69216 24.2156 4.08116 24.9121 4.77357C25.6087 5.46599 26 6.4051 26 7.38433C26 8.36355 25.6087 9.30266 24.9121 9.99508C24.2156 10.6875 23.2708 11.0765 22.2857 11.0765C21.3006 11.0765 20.3559 10.6875 19.6593 9.99508C18.9628 9.30266 18.5715 8.36355 18.5715 7.38433Z" fill="white"/>
</svg>
