<svg width="16" height="11" viewBox="0 0 16 11" fill="none" xmlns="http://www.w3.org/2000/svg">
<path d="M2.09375 0.1875C2.01916 0.1875 1.94762 0.217131 1.89488 0.269876C1.84213 0.322621 1.8125 0.394158 1.8125 0.46875V1.3125H4.0625V0.46875C4.0625 0.394158 4.03287 0.322621 3.98012 0.269876C3.92738 0.217131 3.85584 0.1875 3.78125 0.1875H2.09375ZM11.0938 0.1875C11.0192 0.1875 10.9476 0.217131 10.8949 0.269876C10.8421 0.322621 10.8125 0.394158 10.8125 0.46875V1.3125H14.1875V0.46875C14.1875 0.394158 14.1579 0.322621 14.1051 0.269876C14.0524 0.217131 13.9808 0.1875 13.9062 0.1875H11.0938Z" fill="#D3D3D3"/>
<path d="M0.125 1.875C0.125 1.57663 0.243526 1.29048 0.454505 1.07951C0.665483 0.868527 0.951631 0.75 1.25 0.75H14.75C15.0484 0.75 15.3345 0.868527 15.5455 1.07951C15.7565 1.29048 15.875 1.57663 15.875 1.875V3.28125L14.75 6.375L15.875 9.46875V9.75C15.875 10.0484 15.7565 10.3345 15.5455 10.5455C15.3345 10.7565 15.0484 10.875 14.75 10.875H1.25C0.951631 10.875 0.665483 10.7565 0.454505 10.5455C0.243526 10.3345 0.125 10.0484 0.125 9.75V9.46875L0.96875 6.375L0.125 3.28125V1.875Z" fill="#E6E6E6"/>
<path d="M0.125 3.28125C0.125 3.20666 0.154632 3.13512 0.207376 3.08238C0.260121 3.02963 0.331658 3 0.40625 3H15.5938C15.6683 3 15.7399 3.02963 15.7926 3.08238C15.8454 3.13512 15.875 3.20666 15.875 3.28125V9.46875C15.875 9.54334 15.8454 9.61488 15.7926 9.66762C15.7399 9.72037 15.6683 9.75 15.5938 9.75H0.40625C0.331658 9.75 0.260121 9.72037 0.207376 9.66762C0.154632 9.61488 0.125 9.54334 0.125 9.46875V3.28125Z" fill="#533566"/>
<path d="M11.375 6.375C11.375 7.27011 11.0194 8.12855 10.3865 8.76149C9.75355 9.39442 8.89511 9.75 8 9.75C7.10489 9.75 6.24645 9.39442 5.61351 8.76149C4.98058 8.12855 4.625 7.27011 4.625 6.375C4.625 5.47989 4.98058 4.62145 5.61351 3.98851C6.24645 3.35558 7.10489 3 8 3C8.89511 3 9.75355 3.35558 10.3865 3.98851C11.0194 4.62145 11.375 5.47989 11.375 6.375Z" fill="#321B41"/>
<path d="M8 9.1875C8.74592 9.1875 9.46129 8.89118 9.98874 8.36374C10.5162 7.83629 10.8125 7.12092 10.8125 6.375C10.8125 5.62908 10.5162 4.91371 9.98874 4.38626C9.46129 3.85882 8.74592 3.5625 8 3.5625C7.25408 3.5625 6.53871 3.85882 6.01126 4.38626C5.48382 4.91371 5.1875 5.62908 5.1875 6.375C5.1875 7.12092 5.48382 7.83629 6.01126 8.36374C6.53871 8.89118 7.25408 9.1875 8 9.1875ZM8 10.3125C7.48292 10.3125 6.9709 10.2107 6.49318 10.0128C6.01546 9.8149 5.5814 9.52486 5.21577 9.15923C4.85014 8.7936 4.5601 8.35954 4.36222 7.88182C4.16435 7.4041 4.0625 6.89208 4.0625 6.375C4.0625 5.85792 4.16435 5.3459 4.36222 4.86818C4.5601 4.39046 4.85014 3.9564 5.21577 3.59077C5.5814 3.22514 6.01546 2.9351 6.49318 2.73722C6.9709 2.53935 7.48292 2.4375 8 2.4375C9.04429 2.4375 10.0458 2.85234 10.7842 3.59077C11.5227 4.32919 11.9375 5.33071 11.9375 6.375C11.9375 7.41929 11.5227 8.42081 10.7842 9.15923C10.0458 9.89766 9.04429 10.3125 8 10.3125Z" fill="#9B9B9B"/>
<path d="M9.40625 6.375C9.40625 6.74796 9.25809 7.10565 8.99437 7.36937C8.73065 7.63309 8.37296 7.78125 8 7.78125C7.62704 7.78125 7.26935 7.63309 7.00563 7.36937C6.74191 7.10565 6.59375 6.74796 6.59375 6.375C6.59375 6.00204 6.74191 5.64435 7.00563 5.38063C7.26935 5.11691 7.62704 4.96875 8 4.96875C8.37296 4.96875 8.73065 5.11691 8.99437 5.38063C9.25809 5.64435 9.40625 6.00204 9.40625 6.375Z" fill="#433B6B"/>
<path d="M9.73418 5.17969C9.96705 5.58301 9.9378 6.03638 9.66893 6.19163C9.39949 6.34688 8.9928 6.14551 8.75993 5.74219C8.52705 5.33888 8.55574 4.88551 8.82518 4.72969C9.09405 4.57501 9.50074 4.77582 9.73418 5.17969Z" fill="white"/>
</svg>
