<svg width="35" height="32" viewBox="0 0 35 32" fill="none" xmlns="http://www.w3.org/2000/svg">
<path d="M33.4091 19.2013H31.8182C31.8182 13.0099 26.8386 8.00246 20.6818 8.00246H19.0909V5.97067C19.5747 5.68977 19.9765 5.28572 20.2557 4.79915C20.535 4.31258 20.682 3.76065 20.6818 3.19885C20.6817 2.63705 20.5344 2.08519 20.2549 1.59877C19.9754 1.11235 19.5735 0.708504 19.0895 0.427855C18.6055 0.147205 18.0566 -0.000359408 17.498 6.57358e-07C16.9393 0.000360723 16.3906 0.148633 15.907 0.429906C15.4234 0.711179 15.0219 1.11554 14.743 1.60232C14.4641 2.08911 14.3176 2.64115 14.3182 3.20295C14.3182 4.38683 14.9545 5.42672 15.9091 5.97067V8.00246H14.3182C8.16136 8.00246 3.18182 13.0099 3.18182 19.2013H1.59091C0.715909 19.2013 0 19.9212 0 20.8011V25.6007C0 26.4806 0.715909 27.2005 1.59091 27.2005H3.18182V28.8003C3.18182 29.6489 3.51704 30.4628 4.11375 31.0628C4.71046 31.6629 5.51977 32 6.36364 32H28.6364C30.4023 32 31.8182 30.5761 31.8182 28.8003V27.2005H33.4091C34.2841 27.2005 35 26.4806 35 25.6007V20.8011C35 19.9212 34.2841 19.2013 33.4091 19.2013ZM13.9841 23.2009C13.3636 21.793 11.9795 20.8011 10.3409 20.8011C8.70227 20.8011 7.31818 21.793 6.69773 23.2009C6.49091 22.705 6.36364 22.177 6.36364 21.6011C6.36364 20.5403 6.78267 19.523 7.52855 18.7729C8.27444 18.0229 9.28607 17.6015 10.3409 17.6015C11.3957 17.6015 12.4074 18.0229 13.1533 18.7729C13.8991 19.523 14.3182 20.5403 14.3182 21.6011C14.3182 22.177 14.1909 22.705 13.9841 23.2009ZM28.3023 23.2009C27.6818 21.793 26.25 20.8011 24.6591 20.8011C23.0682 20.8011 21.6364 21.793 21.0159 23.2009C20.8091 22.705 20.6818 22.177 20.6818 21.6011C20.6818 20.5403 21.1009 19.523 21.8467 18.7729C22.5926 18.0229 23.6043 17.6015 24.6591 17.6015C25.7139 17.6015 26.7256 18.0229 27.4714 18.7729C28.2173 19.523 28.6364 20.5403 28.6364 21.6011C28.6364 22.177 28.5091 22.705 28.3023 23.2009Z" fill="white"/>
</svg>
