<svg width="43" height="32" viewBox="0 0 43 32" fill="none" xmlns="http://www.w3.org/2000/svg">
<path d="M16.25 32H36.2C37.8709 32 39.4733 31.3257 40.6548 30.1255C41.8362 28.9253 42.5 27.2974 42.5 25.6V16H18.476L22.088 19.6693C22.2427 19.8158 22.3669 19.9925 22.4529 20.1887C22.539 20.385 22.5853 20.5969 22.589 20.8117C22.5928 21.0265 22.5539 21.2399 22.4747 21.4391C22.3954 21.6384 22.2775 21.8193 22.128 21.9713C21.9784 22.1232 21.8003 22.243 21.6042 22.3235C21.408 22.4039 21.198 22.4435 20.9865 22.4397C20.775 22.4359 20.5665 22.3889 20.3733 22.3014C20.1801 22.214 20.0062 22.0879 19.862 21.9307L16.25 18.2613V32ZM13.1 12.8V10.6667C13.1 10.2447 12.9768 9.83227 12.7461 9.48145C12.5153 9.13063 12.1874 8.85719 11.8036 8.69572C11.4199 8.53426 10.9977 8.49201 10.5903 8.57432C10.1829 8.65664 9.80877 8.85982 9.51508 9.15817C9.22139 9.45653 9.02138 9.83665 8.94035 10.2505C8.85932 10.6643 8.90091 11.0932 9.05985 11.4831C9.2188 11.8729 9.48796 12.2061 9.8333 12.4405C10.1786 12.6749 10.5847 12.8 11 12.8H13.1ZM16.25 10.6667V12.8H18.35C18.7653 12.8 19.1714 12.6749 19.5167 12.4405C19.862 12.2061 20.1312 11.8729 20.2901 11.4831C20.4491 11.0932 20.4907 10.6643 20.4096 10.2505C20.3286 9.83665 20.1286 9.45653 19.8349 9.15817C19.5412 8.85982 19.167 8.65664 18.7597 8.57432C18.3523 8.49201 17.9301 8.53426 17.5464 8.69572C17.1626 8.85719 16.8347 9.13063 16.6039 9.48145C16.3732 9.83227 16.25 10.2447 16.25 10.6667ZM16.25 5.77707V0H36.2C37.8709 0 39.4733 0.674284 40.6548 1.87452C41.8362 3.07475 42.5 4.70261 42.5 6.4V12.8H23.1632C23.586 11.8173 23.7074 10.728 23.5115 9.6742C23.3155 8.62039 22.8114 7.65106 22.065 6.89273C21.3185 6.13441 20.3643 5.62231 19.327 5.42328C18.2896 5.22426 17.2173 5.34755 16.25 5.77707ZM13.1 0V5.77707C12.1327 5.34755 11.0604 5.22426 10.023 5.42328C8.9857 5.62231 8.03151 6.13441 7.28503 6.89273C6.53856 7.65106 6.03446 8.62039 5.83854 9.6742C5.64263 10.728 5.76399 11.8173 6.1868 12.8H0.5V6.4C0.5 4.70261 1.16375 3.07475 2.34523 1.87452C3.52671 0.674284 5.12914 0 6.8 0H13.1ZM13.1 18.2613V32H6.8C5.12914 32 3.52671 31.3257 2.34523 30.1255C1.16375 28.9253 0.5 27.2974 0.5 25.6V16H10.874L7.262 19.6693C7.10726 19.8158 6.98314 19.9925 6.89706 20.1887C6.81098 20.385 6.76469 20.5969 6.76096 20.8117C6.75723 21.0265 6.79613 21.2399 6.87534 21.4391C6.95456 21.6384 7.07246 21.8193 7.22202 21.9713C7.37158 22.1232 7.54973 22.243 7.74584 22.3235C7.94196 22.4039 8.15202 22.4435 8.3635 22.4397C8.57497 22.4359 8.78353 22.3889 8.97673 22.3014C9.16993 22.214 9.34381 22.0879 9.488 21.9307L13.1 18.2613Z" fill="white"/>
</svg>
