<svg width="32" height="32" viewBox="0 0 32 32" fill="none" xmlns="http://www.w3.org/2000/svg">
<path d="M29.3669 9.71633L29.9157 8.81073C29.9157 8.81073 30.3989 8.00966 30.3989 6.93391C30.3989 4.32803 27.9125 4.39683 27.9125 4.39683L22.4955 2.92215L19.5403 0L15.6517 1.05867L14.3765 0.711472L13.4075 1.66988L7.80907 3.19416C7.80907 3.19416 5.6544 3.13495 5.6544 5.3931C5.6544 6.32538 6.0736 7.01978 6.0736 7.01978L6.79413 8.20912L6.16107 8.83419L3.03573 9.6854C3.03573 9.6854 0.549333 9.6166 0.549333 12.2225C0.554306 12.8296 0.696327 13.4278 0.9648 13.9724L0 14.9265L0.506133 15.127C0.517333 15.1542 0.5216 15.1846 0.543467 15.2065C1.52213 16.1873 1.4416 17.5047 1.30187 18.2161L0.7104 18.8087L5.19093 20.9628L11.3445 31.1202C12.3307 32.6701 14.424 31.7005 14.424 31.7005L30.2368 24.0972L29.6453 23.5047C29.5056 22.7932 29.4251 21.4759 30.4037 20.4945C30.4256 20.4727 30.4299 20.4423 30.4411 20.4156L30.9472 20.2145L28.0069 17.3079L31.3829 15.6849L30.8704 15.1713C30.7493 14.5548 30.6795 13.4129 31.528 12.5628C31.5467 12.5436 31.5499 12.518 31.56 12.494L32 12.3196L29.3669 9.71633ZM26.3349 5.0043L25.6683 6.05924L23.9435 4.35363L26.3349 5.0043ZM19.8272 2.74349L22.3035 5.39044L13.3493 8.62619L11.2347 5.34297L19.8272 2.74349ZM7.33013 9.09446L13.4405 19.1804L1.79947 14.5628L7.33013 9.09446ZM4.78347 10.1969L4.06613 10.9062L3.7792 10.4662L4.78347 10.1969ZM2.5184 10.7483L3.18613 11.7761L1.7392 13.2065C1.62549 12.8907 1.56581 12.5581 1.56267 12.2225C1.56267 11.2486 2.04587 10.8779 2.5184 10.7483ZM1.68213 18.6807L1.69013 18.6497L15.1019 24.5202L1.7952 18.1767C1.80747 18.1047 1.81707 18.0252 1.8272 17.9452L12.2448 22.3079L1.86347 17.446C1.86549 17.2238 1.85016 17.0018 1.8176 16.782L11.4597 20.7527L1.688 16.2134C1.62544 16.0033 1.54145 15.8001 1.43733 15.607L14.7083 21.2737L15.0101 21.7719C15.6325 22.75 16.7616 22.5692 17.3307 22.3996C18.1173 22.7879 19.5275 23.686 19.1664 25.0092C18.976 25.709 18.5573 26.0482 17.8869 26.0482C17.208 26.0482 16.5301 25.693 16.5232 25.6882L1.68213 18.6807ZM15.04 25.6988L13.9915 26.133L13.1008 24.766L15.04 25.6988ZM10.9792 28.5687L6.85707 21.7639L10.9541 23.7335L12.8917 26.7159C12.1104 27.0498 11.2373 27.8119 10.9792 28.5687ZM29.1301 22.0706C29.0976 22.2904 29.0822 22.5124 29.0843 22.7346L18.7029 27.5965L29.1205 23.2338C29.1307 23.3132 29.1397 23.3932 29.1525 23.4652L15.8459 29.8093L29.2576 23.9388L29.2656 23.9698L14.4245 30.9762C14.4176 30.981 13.7408 31.3362 13.0608 31.3362C12.3899 31.3362 11.9717 30.9965 11.7813 30.2973C11.2917 28.5015 14.0757 27.4834 14.1173 27.4679L16.5573 26.4268C16.8192 26.5383 18.6875 27.2717 19.6032 25.8322L20.1808 24.8796L29.5109 20.8956C29.4066 21.0886 29.3225 21.2918 29.2597 21.502L19.488 26.0412L29.1301 22.0706ZM29.1483 19.8513L21.2416 23.1282L23.4357 19.5063L27.0448 17.7713L29.1483 19.8513ZM30.4245 13.9276C30.3964 14.1181 30.383 14.3105 30.3845 14.503L21.3883 18.7164L30.4165 14.9356C30.4256 15.0044 30.4331 15.0742 30.4443 15.1361L18.9115 20.6337L30.5349 15.5462L30.5419 15.5729L17.6795 21.646C17.6736 21.6497 17.0864 21.958 16.4976 21.958C15.9157 21.958 15.5536 21.6631 15.3888 21.0572C14.9643 19.5009 17.3771 18.6188 17.4133 18.6055L30.7541 12.9094C30.6643 13.077 30.5916 13.2531 30.5371 13.4353L22.0677 17.3692L30.4245 13.9276Z" fill="white"/>
</svg>
