<svg width="128" height="128" viewBox="0 0 128 128" fill="none" xmlns="http://www.w3.org/2000/svg">
<path d="M64 29.8667C67.9273 29.8667 71.1111 26.6829 71.1111 22.7556C71.1111 18.8282 67.9273 15.6444 64 15.6444C60.0726 15.6444 56.8889 18.8282 56.8889 22.7556C56.8889 26.6829 60.0726 29.8667 64 29.8667Z" stroke="black" stroke-width="4.26667" stroke-linejoin="round"/>
<path d="M42.6667 91.0222C49.7778 98.1333 78.2222 98.1333 85.3333 91.0222C86.7556 86.7556 85.3333 85.3333 85.3333 85.3333C85.3333 78.2222 78.2222 73.9556 78.2222 73.9556C93.8667 69.6889 95.2889 41.2444 64 29.8667C32.7111 41.2444 34.1333 69.6889 49.7778 73.9556C49.7778 73.9556 42.6667 78.2222 42.6667 85.3333C42.6667 85.3333 41.2444 86.7556 42.6667 91.0222Z" stroke="black" stroke-width="4.26667" stroke-linejoin="round"/>
<path d="M25.6 102.4C35.2427 99.6409 54.3573 103.623 64 96.7111C73.6427 103.623 92.7573 99.6409 102.4 102.4C102.4 102.4 107.093 103.936 110.933 108.089C108.999 110.848 106.24 110.905 102.4 109.511C92.7573 106.752 73.6427 110.82 64 106.667C54.3573 110.82 35.2427 106.752 25.6 109.511C21.7486 110.905 18.9923 110.848 17.0667 108.089C20.918 102.571 25.6 102.4 25.6 102.4Z" stroke="black" stroke-width="4.26667" stroke-linejoin="round"/>
<path d="M49.7778 73.9555H78.2222" stroke="black" stroke-width="4.26667" stroke-linecap="round"/>
<path d="M42.6667 85.3333H85.3334" stroke="black" stroke-width="4.26667" stroke-linecap="round"/>
<path d="M64 42.6667V62.5778M56.8889 49.7778H71.1111" stroke="black" stroke-width="4.26667" stroke-linecap="round"/>
</svg>
