<svg width="128" height="128" viewBox="0 0 128 128" fill="none" xmlns="http://www.w3.org/2000/svg">
<path d="M64 33.0809V17.0667M56.8889 22.7555H71.1111" stroke="black" stroke-width="4.26667" stroke-linecap="round" stroke-linejoin="round"/>
<path d="M64 71.1111C64 71.1111 76.8 49.7777 72.5333 41.2444C72.5333 41.2444 69.6889 34.1333 64 34.1333C58.3111 34.1333 55.4667 41.2444 55.4667 41.2444C51.2 49.7777 64 71.1111 64 71.1111Z" stroke="black" stroke-width="4.26667" stroke-linejoin="round"/>
<path d="M64 66.8444C71.1111 45.5111 98.1333 36.9778 109.511 55.4667C118.044 72.5333 92.4444 85.3333 92.4444 85.3333V105.244C76.8 115.2 48.3556 115.2 32.7111 105.244V83.9111C32.7111 83.9111 9.95555 72.5333 18.4889 55.4667C27.0222 36.9778 54.0444 45.5111 64 66.8444ZM64 66.8444V76.8" stroke="black" stroke-width="4.26667" stroke-linejoin="round"/>
<path d="M32.7111 85.3333C48.3556 76.8 76.8 76.8 92.4444 85.3333" stroke="black" stroke-width="4.26667" stroke-linecap="round"/>
<path d="M32.7111 95.2889C48.3556 86.7556 76.8 86.7556 92.4444 95.2889" stroke="black" stroke-width="4.26667" stroke-linecap="round"/>
<path d="M32.7111 105.244C48.3556 96.7111 76.8 96.7111 92.4444 105.244" stroke="black" stroke-width="4.26667" stroke-linecap="round"/>
</svg>
