<svg width="128" height="128" viewBox="0 0 128 128" fill="none" xmlns="http://www.w3.org/2000/svg">
<path d="M62.5778 28.4444C92.4444 31.2889 109.511 51.2 108.089 110.933H42.6667C42.6667 85.3333 71.1111 92.4444 65.4222 51.2" stroke="black" stroke-width="4.26667" stroke-linecap="round" stroke-linejoin="round"/>
<path d="M68.2667 51.2C69.3475 59.4773 52.48 72.1635 45.5111 76.8C36.9778 82.4889 37.4898 89.1449 31.2889 88.1778C28.325 85.504 35.2995 79.5307 31.2889 79.6444C28.4444 79.6444 31.8293 83.1431 28.4444 85.3333C25.6 85.3333 17.0581 88.1778 17.0667 73.9555C17.0667 68.2667 34.1333 39.8222 34.1333 39.8222C34.1333 39.8222 39.5093 34.4178 39.8222 29.8667C37.7458 27.0393 38.4 24.1778 38.4 21.3333C41.2444 18.4889 46.9333 28.4444 46.9333 28.4444H52.6222C52.6222 28.4444 54.8409 22.7783 59.7333 19.9111C62.5778 19.9111 62.5778 28.4444 62.5778 28.4444" stroke="black" stroke-width="4.26667" stroke-linecap="round" stroke-linejoin="round"/>
<path d="M27.0222 72.5333C27.0222 72.9105 26.8724 73.2723 26.6057 73.539C26.3389 73.8057 25.9772 73.9556 25.6 73.9556C25.2228 73.9556 24.8611 73.8057 24.5943 73.539C24.3276 73.2723 24.1778 72.9105 24.1778 72.5333C24.1778 72.1561 24.3276 71.7944 24.5943 71.5277C24.8611 71.261 25.2228 71.1111 25.6 71.1111C25.9772 71.1111 26.3389 71.261 26.6057 71.5277C26.8724 71.7944 27.0222 72.1561 27.0222 72.5333Z" stroke="black" stroke-width="4.26667" stroke-linejoin="round"/>
<path d="M43.3778 40.3911C43.5399 40.4841 43.6452 40.6718 43.6878 40.9435C43.7303 41.2152 43.7093 41.5656 43.6258 41.9748C43.5423 42.3839 43.3981 42.8437 43.2013 43.3279C43.0045 43.8121 42.759 44.3112 42.4789 44.7968C42.1987 45.2824 41.8894 45.745 41.5685 46.158C41.2477 46.5711 40.9215 46.9266 40.6088 47.2042C40.2961 47.4818 40.0029 47.6762 39.7459 47.7761C39.4889 47.876 39.2732 47.8796 39.1111 47.7867C38.949 47.6937 38.8437 47.506 38.8011 47.2343C38.7586 46.9625 38.7796 46.6121 38.8631 46.203C38.9466 45.7939 39.0908 45.3341 39.2876 44.8499C39.4844 44.3657 39.7299 43.8665 40.01 43.3809C40.2902 42.8953 40.5995 42.4328 40.9204 42.0197C41.2413 41.6067 41.5674 41.2512 41.8801 40.9736C42.1928 40.6959 42.486 40.5016 42.743 40.4017C43 40.3017 43.2157 40.2981 43.3778 40.3911Z" fill="black" stroke="black" stroke-width="4.26667" stroke-linejoin="round"/>
</svg>
