<svg width="128" height="128" viewBox="0 0 128 128" fill="none" xmlns="http://www.w3.org/2000/svg">
<path d="M64 25.6C57.7138 25.6 52.6222 30.6916 52.6222 36.9778C52.6222 39.5093 53.4471 41.8418 54.8409 43.7476C49.2942 46.9333 45.5111 52.8782 45.5111 59.7333C45.5111 65.5076 48.1849 70.656 52.3662 74.0409C43.8329 77.056 31.2889 89.8276 31.2889 112.356H96.7111C96.7111 89.8276 84.1671 77.056 75.6338 74.0409C79.8151 70.656 82.4889 65.5076 82.4889 59.7333C82.4889 52.8782 78.7058 46.9333 73.1591 43.7476C74.5529 41.8418 75.3778 39.5093 75.3778 36.9778C75.3778 30.6916 70.2862 25.6 64 25.6Z" stroke="white" stroke-opacity="0.7" stroke-width="4.26667" stroke-linecap="round"/>
</svg>
