<svg width="128" height="128" viewBox="0 0 128 128" fill="none" xmlns="http://www.w3.org/2000/svg">
<path d="M25.6 73.9555C49.7778 69.6889 85.3333 69.6889 102.4 73.9555L109.511 38.4L88.1778 71.1111L87.3245 31.0044L72.5333 69.6889L64 28.4444L55.4667 69.6889L40.6756 31.0044L39.8222 71.1111L18.4889 38.4L25.6 73.9555Z" stroke="white" stroke-opacity="0.7" stroke-width="4.26667" stroke-linejoin="round"/>
<path d="M17.0667 39.8222C20.2086 39.8222 22.7556 37.2752 22.7556 34.1333C22.7556 30.9914 20.2086 28.4444 17.0667 28.4444C13.9248 28.4444 11.3778 30.9914 11.3778 34.1333C11.3778 37.2752 13.9248 39.8222 17.0667 39.8222Z" stroke="white" stroke-opacity="0.7" stroke-width="4.26667" stroke-linejoin="round"/>
<path d="M39.8222 31.2889C42.9641 31.2889 45.5111 28.7419 45.5111 25.6C45.5111 22.4581 42.9641 19.9111 39.8222 19.9111C36.6803 19.9111 34.1333 22.4581 34.1333 25.6C34.1333 28.7419 36.6803 31.2889 39.8222 31.2889Z" stroke="white" stroke-opacity="0.7" stroke-width="4.26667" stroke-linejoin="round"/>
<path d="M64 28.4444C67.1419 28.4444 69.6889 25.8974 69.6889 22.7555C69.6889 19.6137 67.1419 17.0667 64 17.0667C60.8581 17.0667 58.3111 19.6137 58.3111 22.7555C58.3111 25.8974 60.8581 28.4444 64 28.4444Z" stroke="white" stroke-opacity="0.7" stroke-width="4.26667" stroke-linejoin="round"/>
<path d="M88.1778 31.2889C91.3197 31.2889 93.8667 28.7419 93.8667 25.6C93.8667 22.4581 91.3197 19.9111 88.1778 19.9111C85.0359 19.9111 82.4889 22.4581 82.4889 25.6C82.4889 28.7419 85.0359 31.2889 88.1778 31.2889Z" stroke="white" stroke-opacity="0.7" stroke-width="4.26667" stroke-linejoin="round"/>
<path d="M110.933 39.8222C114.075 39.8222 116.622 37.2752 116.622 34.1333C116.622 30.9914 114.075 28.4444 110.933 28.4444C107.791 28.4444 105.244 30.9914 105.244 34.1333C105.244 37.2752 107.791 39.8222 110.933 39.8222Z" stroke="white" stroke-opacity="0.7" stroke-width="4.26667" stroke-linejoin="round"/>
<path d="M25.6 73.9556C25.6 79.6444 29.8667 79.6444 32.7111 85.3333C35.5556 89.6 35.5556 88.1778 34.1333 95.2889C29.8667 98.1333 29.8667 102.4 29.8667 102.4C25.6 106.667 31.2889 109.511 31.2889 109.511C49.7778 112.356 78.2222 112.356 96.7111 109.511C96.7111 109.511 102.4 106.667 98.1333 102.4C98.1333 102.4 98.1333 98.1333 93.8667 95.2889C92.4445 88.1778 92.4445 89.6 95.2889 85.3333C98.1333 79.6444 102.4 79.6444 102.4 73.9556C78.2222 69.6889 49.7778 69.6889 25.6 73.9556Z" stroke="white" stroke-opacity="0.7" stroke-width="4.26667" stroke-linejoin="round"/>
<path d="M32.7111 85.3333C42.6667 82.4889 85.3333 82.4889 95.2889 85.3333" stroke="white" stroke-opacity="0.7" stroke-width="4.26667" stroke-linecap="round"/>
<path d="M34.1333 95.2889C51.2 92.4445 76.8 92.4445 93.8667 95.2889" stroke="white" stroke-opacity="0.7" stroke-width="4.26667" stroke-linecap="round"/>
</svg>
